<?xml version="1.0" encoding="UTF-8" standalone="no"?>
<!DOCTYPE svg PUBLIC "-//W3C//DTD SVG 1.1//EN" "http://www.w3.org/Graphics/SVG/1.1/DTD/svg11.dtd">
<svg xmlns="http://www.w3.org/2000/svg" version="1.1" viewBox="0.00 0.00 370.00 416.00">
<g stroke-width="2.00" fill="none" stroke-linecap="butt">
<path stroke="#b680ff" vector-effect="non-scaling-stroke" d="
  M 86.80 242.24
  C 82.03 247.33 78.52 255.06 79.39 262.01
  C 80.12 267.80 82.07 273.62 85.17 278.99
  Q 91.88 290.61 100.51 296.41
  Q 103.89 298.68 107.27 301.17
  Q 110.23 303.35 113.98 304.46
  Q 127.63 308.48 142.80 304.26
  Q 147.88 302.85 149.70 298.41
  C 151.15 294.87 152.18 291.20 153.34 287.58
  Q 154.60 283.67 154.93 279.23
  Q 155.37 273.38 155.60 267.92
  Q 155.94 259.74 154.93 250.12
  C 154.41 245.14 151.82 240.00 150.07 235.18
  C 148.50 230.86 144.67 227.75 141.38 224.71
  Q 138.44 222.00 134.85 220.80
  Q 130.39 219.30 126.42 219.46
  Q 107.99 220.16 94.50 233.30
  C 91.67 236.05 89.49 239.38 86.80 242.24"
/>
<path stroke="#b680ff" vector-effect="non-scaling-stroke" d="
  M 207.82 297.33
  C 204.09 313.77 223.40 323.10 234.95 329.06
  Q 243.09 333.26 249.91 334.64
  Q 265.51 337.81 281.82 330.37
  Q 285.73 328.59 288.46 325.52
  C 292.07 321.45 295.24 317.31 296.36 311.58
  Q 297.47 305.85 298.24 301.03
  Q 300.29 288.18 295.38 277.36
  Q 289.10 263.52 278.55 255.20
  C 269.93 248.41 260.92 248.69 250.48 250.13
  Q 247.03 250.60 244.54 252.10
  C 234.01 258.44 225.88 268.06 218.44 277.87
  Q 216.41 280.55 212.37 287.12
  Q 208.84 292.83 207.82 297.33"
/>
<path stroke="#b680ff" vector-effect="non-scaling-stroke" d="
  M 133.71 248.38
  Q 132.16 248.98 131.79 250.58
  Q 127.91 267.27 127.93 282.81
  A 4.29 4.28 -81.3 0 0 130.93 286.90
  Q 131.42 287.05 131.93 287.11
  Q 135.65 287.48 136.20 283.65
  Q 137.99 271.26 139.59 258.80
  Q 139.94 256.10 140.02 252.84
  C 140.12 249.01 137.29 246.99 133.71 248.38"
/>
<path stroke="#b680ff" vector-effect="non-scaling-stroke" d="
  M 238.00 316.97
  C 242.41 317.77 244.41 305.40 244.80 302.47
  C 246.17 292.37 248.10 282.22 247.94 272.09
  A 1.99 1.98 6.2 0 0 246.42 270.20
  C 240.46 268.81 239.60 273.35 238.65 277.90
  Q 235.25 294.19 234.07 308.07
  C 233.76 311.67 233.39 316.14 238.00 316.97"
/>
</g>
<path fill="#6d00ff" d="
  M 167.65 0.00
  L 168.73 0.00
  Q 170.84 0.66 172.36 1.98
  Q 173.85 3.28 174.33 5.38
  Q 175.47 10.42 176.21 15.50
  Q 179.31 36.92 180.81 58.38
  Q 181.08 62.18 181.64 66.01
  C 182.13 69.35 181.95 72.85 182.27 76.32
  Q 183.84 93.35 183.99 110.83
  C 184.10 123.77 184.75 135.95 184.99 148.56
  C 185.10 154.57 185.83 160.49 185.96 166.41
  C 186.00 167.94 186.61 169.23 186.83 170.73
  C 187.01 172.00 188.05 172.93 189.27 173.17
  Q 197.62 174.82 206.46 176.60
  Q 213.63 178.05 220.41 180.29
  Q 227.58 182.66 234.47 184.93
  C 237.19 185.83 239.37 187.63 241.97 188.81
  Q 242.45 189.03 242.95 188.85
  Q 246.01 187.77 246.91 186.45
  Q 249.94 182.01 252.82 177.49
  Q 253.77 175.99 254.95 174.73
  C 256.01 173.60 256.54 172.06 257.39 170.74
  Q 261.28 164.67 265.70 158.42
  Q 266.12 157.83 266.49 157.26
  Q 274.01 145.59 281.64 134.60
  Q 282.25 133.73 282.83 132.87
  Q 288.55 124.42 294.84 115.70
  Q 299.53 109.19 303.78 102.99
  Q 310.51 93.18 312.95 90.45
  C 320.94 81.48 328.82 71.55 336.35 63.16
  Q 342.63 56.16 348.86 49.12
  C 350.31 47.48 352.06 46.23 353.47 44.58
  Q 356.42 41.13 360.07 38.55
  Q 360.38 38.33 360.75 38.43
  Q 366.73 40.14 366.90 46.30
  Q 367.19 56.76 366.59 63.49
  Q 366.01 69.99 365.33 76.63
  Q 364.64 83.39 363.56 89.70
  Q 362.80 94.18 362.32 98.93
  Q 361.84 103.66 361.03 108.04
  Q 359.98 113.73 359.40 119.20
  Q 358.73 125.63 357.59 131.51
  Q 356.41 137.62 356.03 143.63
  Q 355.84 146.77 355.32 149.92
  Q 354.31 156.04 353.62 162.07
  Q 352.91 168.30 351.86 173.96
  Q 347.57 197.19 343.12 219.63
  C 342.14 224.54 340.72 229.38 339.79 234.32
  C 338.78 239.74 337.18 244.92 335.62 250.25
  Q 335.17 251.79 335.49 253.39
  C 336.09 256.40 336.50 258.92 337.80 261.84
  Q 339.36 265.36 339.61 266.63
  C 340.66 272.04 341.83 277.58 341.97 283.01
  C 342.30 295.66 342.70 307.86 337.67 319.52
  Q 335.63 324.24 330.49 332.28
  Q 328.07 336.07 324.62 339.51
  Q 320.97 343.16 317.67 346.84
  C 314.85 349.99 311.33 352.82 307.83 355.28
  Q 293.69 365.18 279.38 370.17
  Q 269.21 373.72 255.23 376.43
  C 252.28 377.01 249.37 376.90 246.42 377.35
  Q 244.77 377.60 242.92 377.70
  Q 228.26 378.50 213.27 377.46
  Q 205.30 376.91 197.85 375.43
  Q 190.20 373.90 182.51 372.53
  Q 166.85 369.74 152.50 365.53
  Q 143.75 362.96 136.03 358.93
  Q 124.21 352.76 108.83 343.52
  Q 107.88 342.94 106.92 342.35
  Q 90.06 331.96 75.18 320.07
  C 72.15 317.65 69.21 314.67 67.17 311.47
  Q 65.56 308.95 63.65 306.35
  Q 61.92 304.00 60.72 300.97
  Q 54.73 285.83 52.45 270.82
  C 51.59 265.11 51.86 258.81 52.69 252.82
  Q 54.01 243.34 56.03 234.66
  Q 57.06 230.21 59.09 224.65
  C 65.54 206.99 77.92 192.85 92.68 182.02
  C 96.44 179.26 98.57 172.25 99.57 167.94
  Q 100.43 164.22 101.52 160.73
  Q 103.71 153.71 106.95 143.52
  Q 108.57 138.40 110.13 132.97
  Q 111.64 127.71 113.47 122.56
  Q 116.22 114.86 118.90 106.22
  C 121.27 98.59 123.92 91.07 126.25 83.40
  Q 127.16 80.44 128.53 77.69
  C 129.82 75.11 130.01 72.45 131.21 69.88
  Q 134.62 62.57 137.21 55.20
  C 137.77 53.60 138.93 52.22 139.61 50.55
  Q 142.12 44.40 144.77 38.54
  Q 145.87 36.10 146.69 33.52
  C 147.43 31.20 148.84 29.38 149.76 27.14
  Q 150.94 24.27 152.19 21.36
  Q 153.23 18.94 154.47 16.80
  C 156.02 14.14 156.47 11.24 157.97 8.64
  Q 158.95 6.95 159.84 5.30
  Q 162.21 0.93 167.65 0.00
  Z
  M 86.80 242.24
  C 82.03 247.33 78.52 255.06 79.39 262.01
  C 80.12 267.80 82.07 273.62 85.17 278.99
  Q 91.88 290.61 100.51 296.41
  Q 103.89 298.68 107.27 301.17
  Q 110.23 303.35 113.98 304.46
  Q 127.63 308.48 142.80 304.26
  Q 147.88 302.85 149.70 298.41
  C 151.15 294.87 152.18 291.20 153.34 287.58
  Q 154.60 283.67 154.93 279.23
  Q 155.37 273.38 155.60 267.92
  Q 155.94 259.74 154.93 250.12
  C 154.41 245.14 151.82 240.00 150.07 235.18
  C 148.50 230.86 144.67 227.75 141.38 224.71
  Q 138.44 222.00 134.85 220.80
  Q 130.39 219.30 126.42 219.46
  Q 107.99 220.16 94.50 233.30
  C 91.67 236.05 89.49 239.38 86.80 242.24
  Z
  M 207.82 297.33
  C 204.09 313.77 223.40 323.10 234.95 329.06
  Q 243.09 333.26 249.91 334.64
  Q 265.51 337.81 281.82 330.37
  Q 285.73 328.59 288.46 325.52
  C 292.07 321.45 295.24 317.31 296.36 311.58
  Q 297.47 305.85 298.24 301.03
  Q 300.29 288.18 295.38 277.36
  Q 289.10 263.52 278.55 255.20
  C 269.93 248.41 260.92 248.69 250.48 250.13
  Q 247.03 250.60 244.54 252.10
  C 234.01 258.44 225.88 268.06 218.44 277.87
  Q 216.41 280.55 212.37 287.12
  Q 208.84 292.83 207.82 297.33
  Z"
/>
<path fill="#ffffff" d="
  M 79.39 262.01
  C 78.52 255.06 82.03 247.33 86.80 242.24
  C 89.49 239.38 91.67 236.05 94.50 233.30
  Q 107.99 220.16 126.42 219.46
  Q 130.39 219.30 134.85 220.80
  Q 138.44 222.00 141.38 224.71
  C 144.67 227.75 148.50 230.86 150.07 235.18
  C 151.82 240.00 154.41 245.14 154.93 250.12
  Q 155.94 259.74 155.60 267.92
  Q 155.37 273.38 154.93 279.23
  Q 154.60 283.67 153.34 287.58
  C 152.18 291.20 151.15 294.87 149.70 298.41
  Q 147.88 302.85 142.80 304.26
  Q 127.63 308.48 113.98 304.46
  Q 110.23 303.35 107.27 301.17
  Q 103.89 298.68 100.51 296.41
  Q 91.88 290.61 85.17 278.99
  C 82.07 273.62 80.12 267.80 79.39 262.01
  Z
  M 133.71 248.38
  Q 132.16 248.98 131.79 250.58
  Q 127.91 267.27 127.93 282.81
  A 4.29 4.28 -81.3 0 0 130.93 286.90
  Q 131.42 287.05 131.93 287.11
  Q 135.65 287.48 136.20 283.65
  Q 137.99 271.26 139.59 258.80
  Q 139.94 256.10 140.02 252.84
  C 140.12 249.01 137.29 246.99 133.71 248.38
  Z"
/>
<path fill="#6d00ff" d="
  M 133.71 248.38
  C 137.29 246.99 140.12 249.01 140.02 252.84
  Q 139.94 256.10 139.59 258.80
  Q 137.99 271.26 136.20 283.65
  Q 135.65 287.48 131.93 287.11
  Q 131.42 287.05 130.93 286.90
  A 4.29 4.28 -81.3 0 1 127.93 282.81
  Q 127.91 267.27 131.79 250.58
  Q 132.16 248.98 133.71 248.38
  Z"
/>
<path fill="#ffffff" d="
  M 212.37 287.12
  Q 216.41 280.55 218.44 277.87
  C 225.88 268.06 234.01 258.44 244.54 252.10
  Q 247.03 250.60 250.48 250.13
  C 260.92 248.69 269.93 248.41 278.55 255.20
  Q 289.10 263.52 295.38 277.36
  Q 300.29 288.18 298.24 301.03
  Q 297.47 305.85 296.36 311.58
  C 295.24 317.31 292.07 321.45 288.46 325.52
  Q 285.73 328.59 281.82 330.37
  Q 265.51 337.81 249.91 334.64
  Q 243.09 333.26 234.95 329.06
  C 223.40 323.10 204.09 313.77 207.82 297.33
  Q 208.84 292.83 212.37 287.12
  Z
  M 238.00 316.97
  C 242.41 317.77 244.41 305.40 244.80 302.47
  C 246.17 292.37 248.10 282.22 247.94 272.09
  A 1.99 1.98 6.2 0 0 246.42 270.20
  C 240.46 268.81 239.60 273.35 238.65 277.90
  Q 235.25 294.19 234.07 308.07
  C 233.76 311.67 233.39 316.14 238.00 316.97
  Z"
/>
<path fill="#6d00ff" d="
  M 244.80 302.47
  C 244.41 305.40 242.41 317.77 238.00 316.97
  C 233.39 316.14 233.76 311.67 234.07 308.07
  Q 235.25 294.19 238.65 277.90
  C 239.60 273.35 240.46 268.81 246.42 270.20
  A 1.99 1.98 6.2 0 1 247.94 272.09
  C 248.10 282.22 246.17 292.37 244.80 302.47
  Z"
/>
<path fill="#6d00ff" d="
  M 32.43 282.27
  Q 34.78 282.84 37.40 284.39
  C 40.10 285.99 40.45 288.59 39.85 291.40
  A 1.09 1.04 -13.1 0 1 39.42 292.06
  Q 37.59 293.40 35.31 292.62
  Q 28.55 290.32 21.97 289.11
  Q 18.48 288.47 16.69 288.13
  Q 12.28 287.29 7.52 286.62
  C 4.96 286.26 3.64 284.60 3.99 281.96
  Q 4.53 277.81 8.95 278.43
  C 12.93 278.99 16.80 278.94 20.81 279.73
  Q 27.22 281.00 32.43 282.27
  Z"
/>
<path fill="#6d00ff" d="
  M 0.00 327.16
  L 0.00 325.92
  C 2.15 322.24 4.42 321.55 7.73 320.16
  Q 9.37 319.47 10.89 319.12
  Q 21.27 316.70 31.54 315.33
  Q 33.64 315.05 35.23 315.36
  C 37.82 315.87 41.14 316.61 41.98 319.49
  Q 42.14 320.04 41.86 320.53
  Q 40.21 323.41 37.74 323.64
  Q 25.14 324.79 5.25 329.91
  Q 1.78 330.80 0.00 327.16
  Z"
/>
<path fill="#6d00ff" d="
  M 370.00 379.22
  L 370.00 382.49
  Q 367.38 385.96 362.72 383.31
  Q 355.50 379.20 348.00 375.73
  Q 343.67 373.72 340.17 373.13
  Q 337.34 372.66 336.19 371.42
  Q 334.40 369.49 335.27 366.44
  A 1.64 1.62 83.0 0 1 336.01 365.48
  Q 338.31 364.12 340.22 364.40
  C 342.79 364.77 345.40 364.95 347.91 365.87
  Q 360.77 370.54 370.00 379.22
  Z"
/>
<path fill="#6d00ff" d="
  M 324.19 416.00
  L 321.23 416.00
  Q 318.94 414.64 317.97 413.53
  C 315.26 410.41 312.50 407.32 309.13 404.97
  C 307.29 403.69 302.99 399.38 304.21 396.57
  C 305.27 394.13 309.43 394.93 311.16 395.88
  Q 322.35 402.09 325.92 411.09
  Q 326.98 413.75 324.19 416.00
  Z"
/>
</svg>
