<?xml version="1.0" encoding="UTF-8" standalone="no"?>
<!DOCTYPE svg PUBLIC "-//W3C//DTD SVG 1.1//EN" "http://www.w3.org/Graphics/SVG/1.1/DTD/svg11.dtd">
<svg xmlns="http://www.w3.org/2000/svg" version="1.1" viewBox="0.00 0.00 288.00 273.00">
<path fill="#ffffff" d="
  M 83.60 0.00
  L 85.47 0.00
  Q 88.16 1.23 91.21 3.84
  Q 105.71 16.19 116.63 29.36
  C 118.41 31.50 120.67 32.03 123.32 31.25
  Q 134.66 27.90 146.46 28.01
  C 149.09 28.03 151.59 28.77 154.20 28.99
  C 158.07 29.31 161.73 30.47 165.48 31.48
  C 167.81 32.11 169.67 31.17 171.16 29.40
  Q 183.79 14.41 199.00 2.01
  Q 200.30 0.95 202.89 0.00
  L 204.73 0.00
  Q 208.48 1.42 210.43 3.84
  Q 219.49 15.05 226.03 31.04
  Q 235.55 54.32 242.68 81.01
  Q 242.89 81.79 243.66 81.54
  Q 250.51 79.38 256.41 79.13
  Q 260.33 78.97 264.22 78.33
  Q 267.60 77.77 270.65 78.27
  Q 274.48 78.90 278.39 79.15
  Q 282.10 79.39 285.52 81.06
  A 1.08 1.08 0.0 0 1 285.81 82.80
  Q 284.72 83.86 283.17 84.11
  Q 276.14 85.23 269.14 86.19
  Q 260.54 87.37 247.95 92.83
  Q 247.66 92.96 247.33 92.95
  Q 246.97 92.94 246.61 93.00
  A 0.89 0.89 0.0 0 0 245.87 94.06
  L 247.96 104.08
  A 1.16 1.15 -6.0 0 0 249.11 105.00
  Q 254.04 104.90 259.48 105.23
  Q 275.60 106.22 288.00 113.96
  L 288.00 116.93
  Q 279.06 116.13 270.14 115.44
  Q 264.70 115.03 260.45 115.51
  Q 255.45 116.09 250.47 115.99
  Q 249.80 115.97 249.91 116.63
  L 252.17 130.48
  Q 252.24 130.90 252.67 130.96
  Q 253.29 131.05 253.80 131.30
  Q 257.99 133.32 262.26 135.39
  C 270.02 139.15 277.33 145.16 282.73 151.38
  A 1.62 1.62 0.0 0 1 282.39 153.79
  Q 281.22 154.55 279.60 153.67
  Q 270.53 148.69 260.76 144.67
  Q 259.17 144.01 257.61 143.55
  Q 255.99 143.06 254.60 142.23
  Q 254.11 141.93 253.98 142.50
  L 253.14 146.07
  Q 253.00 146.66 253.18 147.23
  Q 254.03 150.00 253.99 153.09
  C 253.93 157.07 254.94 160.83 254.96 164.86
  C 254.99 169.37 256.00 173.59 256.00 178.21
  Q 256.00 181.63 256.44 185.16
  C 257.21 191.34 256.88 198.42 257.33 204.28
  Q 258.48 219.25 257.86 236.72
  C 257.78 239.26 257.30 241.42 257.10 243.85
  Q 256.88 246.53 255.75 249.08
  Q 250.95 259.83 239.78 265.13
  Q 232.71 268.48 226.26 269.75
  Q 221.27 270.74 216.70 271.44
  Q 214.64 271.76 209.77 272.09
  Q 206.30 272.32 202.87 273.00
  L 187.51 273.00
  Q 184.32 272.28 180.02 271.90
  Q 171.68 271.16 163.63 266.96
  C 158.46 264.27 155.08 260.26 154.89 254.09
  Q 154.60 245.09 155.22 238.20
  C 155.55 234.39 157.87 228.35 161.64 226.15
  C 164.89 224.26 169.23 223.29 172.86 223.11
  Q 177.03 222.89 180.80 222.42
  Q 184.40 221.97 188.46 222.00
  C 191.18 222.02 193.76 221.28 196.48 221.25
  Q 197.03 221.24 197.24 220.74
  C 198.10 218.68 198.09 216.54 198.68 214.36
  Q 201.96 202.33 205.65 186.92
  Q 209.21 172.06 213.65 155.21
  Q 213.93 154.13 214.38 153.21
  Q 215.25 151.41 213.29 151.84
  Q 180.13 159.21 148.31 166.25
  Q 144.01 167.20 139.76 166.27
  Q 106.55 159.07 74.66 151.78
  Q 72.85 151.37 73.46 153.12
  Q 74.88 157.23 75.81 160.80
  Q 82.90 188.33 89.77 216.35
  C 90.14 217.86 90.02 219.18 90.74 220.67
  Q 90.98 221.17 91.53 221.21
  C 94.46 221.46 97.18 222.06 100.17 222.04
  Q 104.28 222.01 108.26 222.57
  C 112.91 223.24 117.42 222.70 122.03 223.98
  Q 131.73 226.69 132.75 236.35
  Q 133.53 243.75 132.98 255.56
  C 132.45 267.01 115.19 271.18 106.43 272.10
  Q 103.51 272.41 100.62 273.00
  L 85.26 273.00
  Q 80.15 271.95 75.00 271.97
  Q 72.15 271.98 61.29 269.59
  Q 55.01 268.21 49.42 265.73
  Q 36.39 259.96 31.65 247.56
  C 30.89 245.56 31.02 243.56 30.62 241.48
  Q 30.21 239.37 30.12 237.06
  Q 29.53 220.39 30.67 203.63
  Q 30.98 199.14 30.99 194.49
  Q 30.99 189.59 31.57 185.23
  C 32.19 180.59 31.85 176.08 32.56 171.48
  Q 33.06 168.24 33.04 164.98
  C 33.01 160.99 34.11 157.23 34.00 153.31
  Q 33.92 150.29 34.74 147.59
  C 35.25 145.93 34.27 144.14 34.08 142.48
  Q 34.01 141.78 33.41 142.16
  Q 31.95 143.08 30.16 143.66
  Q 22.77 146.07 8.08 153.76
  Q 6.77 154.45 5.58 153.84
  A 1.48 1.48 0.0 0 1 5.15 151.56
  Q 13.53 141.89 24.20 136.19
  Q 29.28 133.48 35.43 130.83
  Q 35.80 130.67 35.87 130.27
  L 38.04 117.18
  Q 38.24 115.97 37.01 115.99
  Q 32.25 116.04 27.37 115.49
  Q 23.18 115.01 17.62 115.47
  Q 8.81 116.20 0.00 116.88
  L 0.00 114.02
  Q 12.44 106.18 28.76 105.23
  Q 34.11 104.92 39.10 105.00
  Q 39.85 105.01 40.00 104.28
  L 42.07 94.52
  Q 42.29 93.49 41.30 93.13
  C 35.12 90.88 29.26 88.21 22.72 86.94
  Q 14.17 85.28 5.51 84.19
  Q 3.63 83.95 2.32 82.96
  A 1.12 1.12 0.0 0 1 2.50 81.06
  C 5.13 79.76 7.87 79.19 10.80 79.03
  C 15.24 78.77 19.27 77.49 24.02 78.36
  Q 27.22 78.95 30.23 79.02
  Q 36.00 79.17 43.42 81.20
  Q 43.82 81.31 44.08 81.64
  Q 44.24 81.85 44.48 81.90
  Q 45.00 82.00 45.14 81.49
  Q 51.26 59.14 58.90 38.74
  Q 63.24 27.12 66.91 20.27
  Q 70.20 14.12 76.08 5.83
  Q 79.29 1.31 83.60 0.00
  Z
  M 86.46 82.83
  Q 83.70 83.30 81.99 85.53
  C 80.51 87.47 80.68 90.02 80.20 92.34
  Q 79.90 93.73 80.26 95.09
  C 80.88 97.44 80.47 99.65 82.13 101.66
  Q 83.76 103.64 86.74 104.64
  Q 87.20 104.80 87.63 104.57
  Q 88.73 103.97 89.85 103.41
  C 91.40 102.63 91.84 100.93 92.54 99.46
  C 93.33 97.83 93.30 95.79 93.90 94.00
  Q 94.07 93.51 93.91 93.03
  Q 93.24 91.01 92.95 88.95
  Q 92.75 87.49 91.39 85.13
  C 90.45 83.50 88.92 83.42 87.74 82.18
  Q 87.56 81.99 87.31 82.07
  Q 87.14 82.11 87.09 82.27
  Q 86.95 82.75 86.46 82.83
  Z
  M 150.43 97.24
  C 151.82 93.86 157.28 95.07 159.96 95.47
  Q 162.12 95.80 164.60 94.85
  Q 165.02 94.69 165.04 94.25
  C 165.30 87.37 157.64 84.25 152.09 83.24
  Q 149.48 82.76 146.67 82.37
  Q 144.21 82.02 141.90 82.31
  C 135.26 83.15 122.69 85.01 122.97 94.29
  Q 122.98 94.81 123.49 94.95
  Q 126.93 95.89 130.31 95.18
  C 136.11 93.95 137.67 96.14 139.02 101.25
  C 139.66 103.69 141.43 104.86 143.70 105.66
  C 147.63 107.03 149.50 99.51 150.43 97.24
  Z
  M 201.32 82.67
  Q 201.14 82.57 201.03 82.41
  Q 200.78 82.06 200.38 82.24
  Q 195.86 84.29 194.99 89.18
  Q 194.65 91.10 194.11 93.01
  Q 193.98 93.45 194.09 93.89
  C 195.14 97.95 195.22 102.17 199.49 104.22
  Q 200.97 104.93 202.40 104.24
  Q 204.90 103.04 206.12 101.35
  C 207.51 99.41 207.33 96.74 207.82 94.49
  C 208.19 92.79 207.42 90.90 207.32 89.13
  C 207.14 85.86 204.72 83.45 201.58 82.77
  Q 201.44 82.74 201.32 82.67
  Z"
/>
<path fill="#ffffff" d="
  M 191.66 175.34
  L 157.68 185.02
  Q 156.01 185.49 156.00 183.76
  L 155.97 179.76
  Q 155.96 178.42 157.25 178.05
  L 193.76 167.51
  Q 195.48 167.02 195.06 168.76
  L 194.11 172.78
  A 3.49 3.49 0.0 0 1 191.66 175.34
  Z"
/>
<path fill="#ffffff" d="
  M 187.97 193.63
  L 157.26 202.69
  Q 156.01 203.05 156.01 201.75
  L 155.99 197.30
  A 1.96 1.96 0.0 0 1 157.40 195.42
  L 189.30 186.22
  Q 191.47 185.60 191.08 187.82
  L 190.58 190.70
  Q 190.18 192.97 187.97 193.63
  Z"
/>
<path fill="#ffffff" d="
  M 185.08 211.99
  L 157.69 219.78
  A 1.41 1.41 0.0 0 1 155.90 218.38
  L 156.03 214.14
  A 1.41 1.41 0.0 0 1 157.05 212.83
  L 185.24 204.78
  A 1.41 1.41 0.0 0 1 187.01 206.42
  L 186.07 210.92
  A 1.41 1.41 0.0 0 1 185.08 211.99
  Z"
/>
</svg>
