<?xml version="1.0" encoding="UTF-8" standalone="no"?>
<!DOCTYPE svg PUBLIC "-//W3C//DTD SVG 1.1//EN" "http://www.w3.org/Graphics/SVG/1.1/DTD/svg11.dtd">
<svg xmlns="http://www.w3.org/2000/svg" version="1.1" viewBox="0.00 0.00 370.00 416.00">
<g stroke-width="2.00" fill="none" stroke-linecap="butt">
<path stroke="#b780ff" vector-effect="non-scaling-stroke" d="
  M 370.00 379.29
  Q 361.04 370.75 348.24 365.94
  C 345.61 364.95 342.88 364.65 340.21 364.34
  Q 338.34 364.12 336.06 365.38
  A 1.77 1.77 0.0 0 0 335.20 366.49
  Q 334.56 369.01 335.96 371.35
  A 2.19 2.15 -8.6 0 0 337.33 372.34
  Q 349.33 375.16 361.07 382.56
  C 362.58 383.51 364.31 384.15 366.00 384.69
  Q 366.48 384.85 366.97 384.69
  Q 368.94 384.07 370.00 382.28"
/>
<path stroke="#b780ff" vector-effect="non-scaling-stroke" d="
  M 324.24 416.00
  Q 327.12 413.87 325.80 410.72
  C 323.51 405.24 313.41 393.32 305.39 395.22
  A 1.20 1.17 11.0 0 0 304.69 395.68
  C 302.20 399.04 307.13 403.42 309.42 405.33
  Q 315.47 410.39 320.90 416.00"
/>
<path stroke="#b780ff" vector-effect="non-scaling-stroke" d="
  M 0.00 327.15
  Q 1.60 330.97 5.99 329.71
  Q 21.71 325.21 38.02 323.79
  Q 39.51 323.66 41.71 320.86
  Q 42.03 320.45 41.97 319.94
  C 41.52 316.24 38.22 316.20 35.42 315.38
  Q 34.10 314.99 32.76 315.15
  Q 20.85 316.57 9.68 319.47
  C 5.78 320.48 1.85 322.27 0.00 326.13"
/>
<path stroke="#b780ff" vector-effect="non-scaling-stroke" d="
  M 337.79 261.66
  Q 336.09 258.37 335.54 253.66
  Q 335.23 251.01 336.16 248.13
  Q 337.32 244.55 338.30 241.04
  C 339.71 235.98 340.36 230.81 341.71 225.76
  Q 342.70 222.07 343.47 218.07
  Q 347.97 194.62 352.07 172.80
  C 353.23 166.60 353.85 160.14 354.77 153.82
  Q 355.69 147.47 356.48 139.64
  Q 357.04 134.09 358.14 128.33
  C 359.23 122.66 359.63 116.65 360.62 110.84
  Q 361.68 104.57 362.50 97.72
  C 363.29 91.09 364.51 84.45 365.25 77.74
  C 366.41 67.25 367.42 56.86 366.88 45.99
  C 366.79 44.30 366.44 42.00 365.01 40.87
  Q 363.06 39.32 361.07 38.39
  Q 360.55 38.15 360.09 38.49
  Q 356.61 41.09 352.81 45.08
  Q 351.59 46.36 350.52 47.51
  Q 340.48 58.33 328.93 71.48
  C 325.09 75.86 321.79 80.63 317.77 84.98
  Q 313.11 90.02 309.43 95.12
  Q 303.20 103.74 296.36 113.69
  C 293.95 117.20 291.17 120.40 288.93 123.97
  Q 286.48 127.85 283.66 131.76
  Q 275.33 143.27 268.70 154.08
  C 267.29 156.39 265.45 158.30 264.01 160.57
  Q 256.07 173.10 247.19 185.95
  Q 245.57 188.30 242.74 188.72
  Q 242.25 188.79 241.80 188.57
  C 238.94 187.20 236.31 185.51 233.22 184.48
  Q 227.06 182.44 220.67 180.39
  C 210.34 177.08 199.85 175.26 189.23 173.08
  Q 187.64 172.75 187.08 171.22
  Q 186.31 169.14 186.17 167.32
  C 185.66 160.66 185.15 154.15 185.00 147.55
  C 184.73 135.23 184.14 123.47 184.03 110.82
  Q 183.87 93.21 182.04 71.81
  Q 181.05 60.30 180.08 48.72
  Q 178.33 27.80 174.70 6.55
  C 173.24 -1.99 163.78 -1.38 159.99 4.96
  Q 157.87 8.49 156.65 11.62
  Q 155.34 14.98 153.69 18.37
  Q 149.21 27.60 145.08 37.57
  Q 142.41 44.01 139.57 50.24
  Q 136.67 56.63 134.12 62.91
  C 130.78 71.15 127.43 79.58 124.70 88.16
  Q 119.00 106.07 113.05 123.68
  Q 111.31 128.82 109.74 134.44
  C 106.72 145.23 102.54 156.07 99.96 166.30
  Q 98.12 173.60 95.54 178.74
  C 94.45 180.90 92.58 182.05 90.73 183.47
  C 85.27 187.67 80.05 191.93 75.67 197.19
  Q 69.69 204.35 64.95 212.16
  Q 60.70 219.18 58.06 227.66
  Q 53.54 242.20 52.17 257.20
  C 50.93 270.76 54.69 284.68 59.44 297.70
  Q 61.33 302.86 63.92 306.82
  C 68.38 313.60 72.30 318.21 78.47 322.78
  C 85.06 327.66 91.68 332.67 98.42 336.95
  Q 104.73 340.95 111.34 345.08
  C 117.78 349.11 124.64 352.62 131.30 356.42
  Q 138.99 360.82 146.79 363.52
  Q 159.69 367.98 171.16 370.25
  Q 182.95 372.58 195.12 375.00
  Q 206.15 377.20 215.33 377.67
  C 229.79 378.42 245.91 378.59 259.72 375.48
  Q 272.82 372.53 278.63 370.46
  Q 296.96 363.95 312.04 352.17
  Q 316.17 348.95 321.31 342.83
  C 324.08 339.53 327.46 337.26 329.73 333.58
  Q 332.42 329.22 335.10 324.57
  C 339.82 316.41 341.85 307.56 341.99 298.24
  C 342.10 290.33 342.45 282.31 341.13 274.66
  C 340.37 270.19 339.94 265.80 337.79 261.66"
/>
<path stroke="#b780ff" vector-effect="non-scaling-stroke" d="
  M 36.43 283.77
  Q 33.14 282.27 29.44 281.45
  Q 18.67 279.06 8.40 278.35
  Q 4.23 278.07 3.91 282.16
  Q 3.91 282.24 3.90 282.32
  Q 3.68 286.31 7.73 286.78
  Q 23.12 288.54 36.01 292.95
  Q 37.17 293.35 38.72 292.54
  Q 39.78 291.98 39.98 290.84
  Q 40.86 285.79 36.43 283.77"
/>
<path stroke="#b780ff" vector-effect="non-scaling-stroke" d="
  M 85.14 244.35
  C 81.48 248.81 78.71 255.64 79.35 261.42
  C 80.03 267.48 81.97 273.31 85.11 278.79
  Q 90.33 287.89 96.85 293.70
  C 99.64 296.17 103.06 297.97 106.04 300.27
  Q 109.47 302.92 112.85 304.01
  Q 121.25 306.72 128.54 306.41
  C 133.81 306.19 146.09 305.35 148.90 299.88
  C 150.84 296.11 151.97 291.99 153.22 287.98
  Q 154.30 284.55 154.67 280.78
  Q 155.62 271.18 155.76 264.50
  Q 155.84 260.71 154.98 250.87
  Q 154.63 246.83 153.21 243.39
  C 151.06 238.13 150.00 232.99 145.75 228.92
  Q 142.57 225.87 139.50 223.30
  C 136.49 220.77 132.87 220.28 129.06 219.59
  Q 127.25 219.26 125.54 219.41
  Q 107.37 220.95 95.38 232.50
  C 91.68 236.07 88.43 240.34 85.14 244.35"
/>
<path stroke="#b780ff" vector-effect="non-scaling-stroke" d="
  M 239.13 331.01
  Q 243.63 333.30 248.57 334.27
  Q 255.70 335.68 258.99 335.64
  C 268.03 335.51 282.02 332.68 288.48 325.47
  C 291.50 322.10 294.91 317.81 295.91 313.27
  Q 297.43 306.37 298.34 300.27
  C 300.25 287.36 296.48 277.22 289.27 266.65
  Q 284.87 260.19 278.31 255.05
  Q 270.77 249.14 261.09 249.31
  Q 255.17 249.42 248.44 250.54
  Q 247.19 250.75 246.07 251.35
  Q 239.55 254.80 233.60 260.50
  Q 219.52 273.97 210.27 290.92
  Q 205.13 300.34 209.10 308.89
  Q 210.65 312.23 213.63 315.13
  C 220.94 322.25 230.17 326.47 239.13 331.01"
/>
<path stroke="#b780ff" vector-effect="non-scaling-stroke" d="
  M 135.39 286.00
  Q 136.35 283.53 136.70 280.83
  Q 138.40 267.51 139.84 258.17
  C 140.11 256.42 139.95 254.75 140.06 253.01
  C 140.29 249.48 138.14 247.28 134.44 248.04
  Q 132.59 248.42 132.08 249.89
  Q 130.93 253.23 130.39 256.77
  Q 129.35 263.68 128.35 270.96
  C 127.82 274.78 128.07 278.44 127.93 282.28
  C 127.78 286.21 130.71 287.66 134.32 286.90
  A 1.47 1.46 4.9 0 0 135.39 286.00"
/>
<path stroke="#b780ff" vector-effect="non-scaling-stroke" d="
  M 242.08 313.38
  Q 243.95 308.68 244.59 304.09
  Q 246.00 293.88 247.55 282.82
  Q 248.32 277.35 247.91 271.93
  A 2.08 2.08 0.0 0 0 246.20 270.05
  Q 240.65 269.03 239.36 274.71
  Q 235.90 290.00 234.03 307.39
  Q 233.66 310.82 234.25 313.68
  Q 234.93 316.92 238.93 317.04
  Q 239.53 317.06 239.95 316.64
  Q 241.31 315.29 242.08 313.38"
/>
</g>
<path fill="#ffffff" d="
  M 0.00 0.00
  L 370.00 0.00
  L 370.00 379.29
  Q 361.04 370.75 348.24 365.94
  C 345.61 364.95 342.88 364.65 340.21 364.34
  Q 338.34 364.12 336.06 365.38
  A 1.77 1.77 0.0 0 0 335.20 366.49
  Q 334.56 369.01 335.96 371.35
  A 2.19 2.15 -8.6 0 0 337.33 372.34
  Q 349.33 375.16 361.07 382.56
  C 362.58 383.51 364.31 384.15 366.00 384.69
  Q 366.48 384.85 366.97 384.69
  Q 368.94 384.07 370.00 382.28
  L 370.00 416.00
  L 324.24 416.00
  Q 327.12 413.87 325.80 410.72
  C 323.51 405.24 313.41 393.32 305.39 395.22
  A 1.20 1.17 11.0 0 0 304.69 395.68
  C 302.20 399.04 307.13 403.42 309.42 405.33
  Q 315.47 410.39 320.90 416.00
  L 0.00 416.00
  L 0.00 327.15
  Q 1.60 330.97 5.99 329.71
  Q 21.71 325.21 38.02 323.79
  Q 39.51 323.66 41.71 320.86
  Q 42.03 320.45 41.97 319.94
  C 41.52 316.24 38.22 316.20 35.42 315.38
  Q 34.10 314.99 32.76 315.15
  Q 20.85 316.57 9.68 319.47
  C 5.78 320.48 1.85 322.27 0.00 326.13
  L 0.00 0.00
  Z
  M 337.79 261.66
  Q 336.09 258.37 335.54 253.66
  Q 335.23 251.01 336.16 248.13
  Q 337.32 244.55 338.30 241.04
  C 339.71 235.98 340.36 230.81 341.71 225.76
  Q 342.70 222.07 343.47 218.07
  Q 347.97 194.62 352.07 172.80
  C 353.23 166.60 353.85 160.14 354.77 153.82
  Q 355.69 147.47 356.48 139.64
  Q 357.04 134.09 358.14 128.33
  C 359.23 122.66 359.63 116.65 360.62 110.84
  Q 361.68 104.57 362.50 97.72
  C 363.29 91.09 364.51 84.45 365.25 77.74
  C 366.41 67.25 367.42 56.86 366.88 45.99
  C 366.79 44.30 366.44 42.00 365.01 40.87
  Q 363.06 39.32 361.07 38.39
  Q 360.55 38.15 360.09 38.49
  Q 356.61 41.09 352.81 45.08
  Q 351.59 46.36 350.52 47.51
  Q 340.48 58.33 328.93 71.48
  C 325.09 75.86 321.79 80.63 317.77 84.98
  Q 313.11 90.02 309.43 95.12
  Q 303.20 103.74 296.36 113.69
  C 293.95 117.20 291.17 120.40 288.93 123.97
  Q 286.48 127.85 283.66 131.76
  Q 275.33 143.27 268.70 154.08
  C 267.29 156.39 265.45 158.30 264.01 160.57
  Q 256.07 173.10 247.19 185.95
  Q 245.57 188.30 242.74 188.72
  Q 242.25 188.79 241.80 188.57
  C 238.94 187.20 236.31 185.51 233.22 184.48
  Q 227.06 182.44 220.67 180.39
  C 210.34 177.08 199.85 175.26 189.23 173.08
  Q 187.64 172.75 187.08 171.22
  Q 186.31 169.14 186.17 167.32
  C 185.66 160.66 185.15 154.15 185.00 147.55
  C 184.73 135.23 184.14 123.47 184.03 110.82
  Q 183.87 93.21 182.04 71.81
  Q 181.05 60.30 180.08 48.72
  Q 178.33 27.80 174.70 6.55
  C 173.24 -1.99 163.78 -1.38 159.99 4.96
  Q 157.87 8.49 156.65 11.62
  Q 155.34 14.98 153.69 18.37
  Q 149.21 27.60 145.08 37.57
  Q 142.41 44.01 139.57 50.24
  Q 136.67 56.63 134.12 62.91
  C 130.78 71.15 127.43 79.58 124.70 88.16
  Q 119.00 106.07 113.05 123.68
  Q 111.31 128.82 109.74 134.44
  C 106.72 145.23 102.54 156.07 99.96 166.30
  Q 98.12 173.60 95.54 178.74
  C 94.45 180.90 92.58 182.05 90.73 183.47
  C 85.27 187.67 80.05 191.93 75.67 197.19
  Q 69.69 204.35 64.95 212.16
  Q 60.70 219.18 58.06 227.66
  Q 53.54 242.20 52.17 257.20
  C 50.93 270.76 54.69 284.68 59.44 297.70
  Q 61.33 302.86 63.92 306.82
  C 68.38 313.60 72.30 318.21 78.47 322.78
  C 85.06 327.66 91.68 332.67 98.42 336.95
  Q 104.73 340.95 111.34 345.08
  C 117.78 349.11 124.64 352.62 131.30 356.42
  Q 138.99 360.82 146.79 363.52
  Q 159.69 367.98 171.16 370.25
  Q 182.95 372.58 195.12 375.00
  Q 206.15 377.20 215.33 377.67
  C 229.79 378.42 245.91 378.59 259.72 375.48
  Q 272.82 372.53 278.63 370.46
  Q 296.96 363.95 312.04 352.17
  Q 316.17 348.95 321.31 342.83
  C 324.08 339.53 327.46 337.26 329.73 333.58
  Q 332.42 329.22 335.10 324.57
  C 339.82 316.41 341.85 307.56 341.99 298.24
  C 342.10 290.33 342.45 282.31 341.13 274.66
  C 340.37 270.19 339.94 265.80 337.79 261.66
  Z
  M 36.43 283.77
  Q 33.14 282.27 29.44 281.45
  Q 18.67 279.06 8.40 278.35
  Q 4.23 278.07 3.91 282.16
  Q 3.91 282.24 3.90 282.32
  Q 3.68 286.31 7.73 286.78
  Q 23.12 288.54 36.01 292.95
  Q 37.17 293.35 38.72 292.54
  Q 39.78 291.98 39.98 290.84
  Q 40.86 285.79 36.43 283.77
  Z"
/>
<path fill="#6e00ff" d="
  M 337.79 261.66
  C 339.94 265.80 340.37 270.19 341.13 274.66
  C 342.45 282.31 342.10 290.33 341.99 298.24
  C 341.85 307.56 339.82 316.41 335.10 324.57
  Q 332.42 329.22 329.73 333.58
  C 327.46 337.26 324.08 339.53 321.31 342.83
  Q 316.17 348.95 312.04 352.17
  Q 296.96 363.95 278.63 370.46
  Q 272.82 372.53 259.72 375.48
  C 245.91 378.59 229.79 378.42 215.33 377.67
  Q 206.15 377.20 195.12 375.00
  Q 182.95 372.58 171.16 370.25
  Q 159.69 367.98 146.79 363.52
  Q 138.99 360.82 131.30 356.42
  C 124.64 352.62 117.78 349.11 111.34 345.08
  Q 104.73 340.95 98.42 336.95
  C 91.68 332.67 85.06 327.66 78.47 322.78
  C 72.30 318.21 68.38 313.60 63.92 306.82
  Q 61.33 302.86 59.44 297.70
  C 54.69 284.68 50.93 270.76 52.17 257.20
  Q 53.54 242.20 58.06 227.66
  Q 60.70 219.18 64.95 212.16
  Q 69.69 204.35 75.67 197.19
  C 80.05 191.93 85.27 187.67 90.73 183.47
  C 92.58 182.05 94.45 180.90 95.54 178.74
  Q 98.12 173.60 99.96 166.30
  C 102.54 156.07 106.72 145.23 109.74 134.44
  Q 111.31 128.82 113.05 123.68
  Q 119.00 106.07 124.70 88.16
  C 127.43 79.58 130.78 71.15 134.12 62.91
  Q 136.67 56.63 139.57 50.24
  Q 142.41 44.01 145.08 37.57
  Q 149.21 27.60 153.69 18.37
  Q 155.34 14.98 156.65 11.62
  Q 157.87 8.49 159.99 4.96
  C 163.78 -1.38 173.24 -1.99 174.70 6.55
  Q 178.33 27.80 180.08 48.72
  Q 181.05 60.30 182.04 71.81
  Q 183.87 93.21 184.03 110.82
  C 184.14 123.47 184.73 135.23 185.00 147.55
  C 185.15 154.15 185.66 160.66 186.17 167.32
  Q 186.31 169.14 187.08 171.22
  Q 187.64 172.75 189.23 173.08
  C 199.85 175.26 210.34 177.08 220.67 180.39
  Q 227.06 182.44 233.22 184.48
  C 236.31 185.51 238.94 187.20 241.80 188.57
  Q 242.25 188.79 242.74 188.72
  Q 245.57 188.30 247.19 185.95
  Q 256.07 173.10 264.01 160.57
  C 265.45 158.30 267.29 156.39 268.70 154.08
  Q 275.33 143.27 283.66 131.76
  Q 286.48 127.85 288.93 123.97
  C 291.17 120.40 293.95 117.20 296.36 113.69
  Q 303.20 103.74 309.43 95.12
  Q 313.11 90.02 317.77 84.98
  C 321.79 80.63 325.09 75.86 328.93 71.48
  Q 340.48 58.33 350.52 47.51
  Q 351.59 46.36 352.81 45.08
  Q 356.61 41.09 360.09 38.49
  Q 360.55 38.15 361.07 38.39
  Q 363.06 39.32 365.01 40.87
  C 366.44 42.00 366.79 44.30 366.88 45.99
  C 367.42 56.86 366.41 67.25 365.25 77.74
  C 364.51 84.45 363.29 91.09 362.50 97.72
  Q 361.68 104.57 360.62 110.84
  C 359.63 116.65 359.23 122.66 358.14 128.33
  Q 357.04 134.09 356.48 139.64
  Q 355.69 147.47 354.77 153.82
  C 353.85 160.14 353.23 166.60 352.07 172.80
  Q 347.97 194.62 343.47 218.07
  Q 342.70 222.07 341.71 225.76
  C 340.36 230.81 339.71 235.98 338.30 241.04
  Q 337.32 244.55 336.16 248.13
  Q 335.23 251.01 335.54 253.66
  Q 336.09 258.37 337.79 261.66
  Z
  M 85.14 244.35
  C 81.48 248.81 78.71 255.64 79.35 261.42
  C 80.03 267.48 81.97 273.31 85.11 278.79
  Q 90.33 287.89 96.85 293.70
  C 99.64 296.17 103.06 297.97 106.04 300.27
  Q 109.47 302.92 112.85 304.01
  Q 121.25 306.72 128.54 306.41
  C 133.81 306.19 146.09 305.35 148.90 299.88
  C 150.84 296.11 151.97 291.99 153.22 287.98
  Q 154.30 284.55 154.67 280.78
  Q 155.62 271.18 155.76 264.50
  Q 155.84 260.71 154.98 250.87
  Q 154.63 246.83 153.21 243.39
  C 151.06 238.13 150.00 232.99 145.75 228.92
  Q 142.57 225.87 139.50 223.30
  C 136.49 220.77 132.87 220.28 129.06 219.59
  Q 127.25 219.26 125.54 219.41
  Q 107.37 220.95 95.38 232.50
  C 91.68 236.07 88.43 240.34 85.14 244.35
  Z
  M 239.13 331.01
  Q 243.63 333.30 248.57 334.27
  Q 255.70 335.68 258.99 335.64
  C 268.03 335.51 282.02 332.68 288.48 325.47
  C 291.50 322.10 294.91 317.81 295.91 313.27
  Q 297.43 306.37 298.34 300.27
  C 300.25 287.36 296.48 277.22 289.27 266.65
  Q 284.87 260.19 278.31 255.05
  Q 270.77 249.14 261.09 249.31
  Q 255.17 249.42 248.44 250.54
  Q 247.19 250.75 246.07 251.35
  Q 239.55 254.80 233.60 260.50
  Q 219.52 273.97 210.27 290.92
  Q 205.13 300.34 209.10 308.89
  Q 210.65 312.23 213.63 315.13
  C 220.94 322.25 230.17 326.47 239.13 331.01
  Z"
/>
<path fill="#ffffff" d="
  M 79.35 261.42
  C 78.71 255.64 81.48 248.81 85.14 244.35
  C 88.43 240.34 91.68 236.07 95.38 232.50
  Q 107.37 220.95 125.54 219.41
  Q 127.25 219.26 129.06 219.59
  C 132.87 220.28 136.49 220.77 139.50 223.30
  Q 142.57 225.87 145.75 228.92
  C 150.00 232.99 151.06 238.13 153.21 243.39
  Q 154.63 246.83 154.98 250.87
  Q 155.84 260.71 155.76 264.50
  Q 155.62 271.18 154.67 280.78
  Q 154.30 284.55 153.22 287.98
  C 151.97 291.99 150.84 296.11 148.90 299.88
  C 146.09 305.35 133.81 306.19 128.54 306.41
  Q 121.25 306.72 112.85 304.01
  Q 109.47 302.92 106.04 300.27
  C 103.06 297.97 99.64 296.17 96.85 293.70
  Q 90.33 287.89 85.11 278.79
  C 81.97 273.31 80.03 267.48 79.35 261.42
  Z
  M 135.39 286.00
  Q 136.35 283.53 136.70 280.83
  Q 138.40 267.51 139.84 258.17
  C 140.11 256.42 139.95 254.75 140.06 253.01
  C 140.29 249.48 138.14 247.28 134.44 248.04
  Q 132.59 248.42 132.08 249.89
  Q 130.93 253.23 130.39 256.77
  Q 129.35 263.68 128.35 270.96
  C 127.82 274.78 128.07 278.44 127.93 282.28
  C 127.78 286.21 130.71 287.66 134.32 286.90
  A 1.47 1.46 4.9 0 0 135.39 286.00
  Z"
/>
<path fill="#6e00ff" d="
  M 135.39 286.00
  A 1.47 1.46 4.9 0 1 134.32 286.90
  C 130.71 287.66 127.78 286.21 127.93 282.28
  C 128.07 278.44 127.82 274.78 128.35 270.96
  Q 129.35 263.68 130.39 256.77
  Q 130.93 253.23 132.08 249.89
  Q 132.59 248.42 134.44 248.04
  C 138.14 247.28 140.29 249.48 140.06 253.01
  C 139.95 254.75 140.11 256.42 139.84 258.17
  Q 138.40 267.51 136.70 280.83
  Q 136.35 283.53 135.39 286.00
  Z"
/>
<path fill="#ffffff" d="
  M 239.13 331.01
  C 230.17 326.47 220.94 322.25 213.63 315.13
  Q 210.65 312.23 209.10 308.89
  Q 205.13 300.34 210.27 290.92
  Q 219.52 273.97 233.60 260.50
  Q 239.55 254.80 246.07 251.35
  Q 247.19 250.75 248.44 250.54
  Q 255.17 249.42 261.09 249.31
  Q 270.77 249.14 278.31 255.05
  Q 284.87 260.19 289.27 266.65
  C 296.48 277.22 300.25 287.36 298.34 300.27
  Q 297.43 306.37 295.91 313.27
  C 294.91 317.81 291.50 322.10 288.48 325.47
  C 282.02 332.68 268.03 335.51 258.99 335.64
  Q 255.70 335.68 248.57 334.27
  Q 243.63 333.30 239.13 331.01
  Z
  M 242.08 313.38
  Q 243.95 308.68 244.59 304.09
  Q 246.00 293.88 247.55 282.82
  Q 248.32 277.35 247.91 271.93
  A 2.08 2.08 0.0 0 0 246.20 270.05
  Q 240.65 269.03 239.36 274.71
  Q 235.90 290.00 234.03 307.39
  Q 233.66 310.82 234.25 313.68
  Q 234.93 316.92 238.93 317.04
  Q 239.53 317.06 239.95 316.64
  Q 241.31 315.29 242.08 313.38
  Z"
/>
<path fill="#6e00ff" d="
  M 242.08 313.38
  Q 241.31 315.29 239.95 316.64
  Q 239.53 317.06 238.93 317.04
  Q 234.93 316.92 234.25 313.68
  Q 233.66 310.82 234.03 307.39
  Q 235.90 290.00 239.36 274.71
  Q 240.65 269.03 246.20 270.05
  A 2.08 2.08 0.0 0 1 247.91 271.93
  Q 248.32 277.35 247.55 282.82
  Q 246.00 293.88 244.59 304.09
  Q 243.95 308.68 242.08 313.38
  Z"
/>
<path fill="#6e00ff" d="
  M 36.43 283.77
  Q 40.86 285.79 39.98 290.84
  Q 39.78 291.98 38.72 292.54
  Q 37.17 293.35 36.01 292.95
  Q 23.12 288.54 7.73 286.78
  Q 3.68 286.31 3.90 282.32
  Q 3.91 282.24 3.91 282.16
  Q 4.23 278.07 8.40 278.35
  Q 18.67 279.06 29.44 281.45
  Q 33.14 282.27 36.43 283.77
  Z"
/>
<path fill="#6e00ff" d="
  M 0.00 327.15
  L 0.00 326.13
  C 1.85 322.27 5.78 320.48 9.68 319.47
  Q 20.85 316.57 32.76 315.15
  Q 34.10 314.99 35.42 315.38
  C 38.22 316.20 41.52 316.24 41.97 319.94
  Q 42.03 320.45 41.71 320.86
  Q 39.51 323.66 38.02 323.79
  Q 21.71 325.21 5.99 329.71
  Q 1.60 330.97 0.00 327.15
  Z"
/>
<path fill="#6e00ff" d="
  M 370.00 379.29
  L 370.00 382.28
  Q 368.94 384.07 366.97 384.69
  Q 366.48 384.85 366.00 384.69
  C 364.31 384.15 362.58 383.51 361.07 382.56
  Q 349.33 375.16 337.33 372.34
  A 2.19 2.15 -8.6 0 1 335.96 371.35
  Q 334.56 369.01 335.20 366.49
  A 1.77 1.77 0.0 0 1 336.06 365.38
  Q 338.34 364.12 340.21 364.34
  C 342.88 364.65 345.61 364.95 348.24 365.94
  Q 361.04 370.75 370.00 379.29
  Z"
/>
<path fill="#6e00ff" d="
  M 324.24 416.00
  L 320.90 416.00
  Q 315.47 410.39 309.42 405.33
  C 307.13 403.42 302.20 399.04 304.69 395.68
  A 1.20 1.17 11.0 0 1 305.39 395.22
  C 313.41 393.32 323.51 405.24 325.80 410.72
  Q 327.12 413.87 324.24 416.00
  Z"
/>
</svg>
